# xmcd
#
# Track frame offsets:
#	150
#	39927
#	69288
#	86723
#	111399
#	136711
#	156125
#	166946
#	184440
#	208613
#	236531
#	260560
#	280965
#	301381
#	326165
#
# Disc length: 4666 seconds
#
# Revision: 1
# Processed by: cddbd v1.4PL0 Copyright (c) Steve Scherf et al.
# Submitted via: EasyCDDAExtractor 5.0.6
#
DISCID=d412380f
DTITLE=billy paul - les indispensables Disc 15
DYEAR=1900
DGENRE=
TTITLE0=me and mrs jones
TTITLE1=your song
TTITLE2=every day people
TTITLE3=july
TTITLE4=only the strong survive
TTITLE5=people power
TTITLE6=proud mary
TTITLE7=ebony woman
TTITLE8=america
TTITLE9=i see the light
TTITLE10=everything must change
TTITLE11=its to late
TTITLE12=mrs robinson
TTITLE13=whrn love is new
TTITLE14=am i black enough for you
EXTD=
EXTT0=
EXTT1=
EXTT2=
EXTT3=
EXTT4=
EXTT5=
EXTT6=
EXTT7=
EXTT8=
EXTT9=
EXTT10=
EXTT11=
EXTT12=
EXTT13=
EXTT14=
PLAYORDER=
